# xmcd
#
# Track frame offsets: 
#        150
#        22160
#        35284
#        52161
#        68522
#        83037
#        96800
#        109223
#        127859
#        140108
#        156717
#        173299
#        191353
#        206626
#        225028
#
# Disc length: 3197 seconds
#
# Revision: 0
# Processed by: cddbd v1.4PL0 Copyright (c) Steve Scherf et al.
# Submitted via: ExactAudioCopy v0.95a3
#
DISCID=c20c7b0f
DTITLE=Various Artist - TT041
DYEAR=1900
DGENRE=Country
TTITLE0=Dixie Chicks - Cowboy Take Me Away
TTITLE1=Cline, Patsy - Crazy
TTITLE2=Dunn, Holly - Daddy's Hands
TTITLE3=Daniels, Charlie - Devil Went Down To Georgia, The
TTITLE4=Travis, Randy - Diggin' Up Bones
TTITLE5=Wynette, Tammy - D-I-V-O-R-C-E
TTITLE6=Oak Ridge Boys - Elvira
TTITLE7=Williams, Hank, Jr. - Family Tradition
TTITLE8=Cash, Johnny - Folsom Prison Blues
TTITLE9=McEntire, Reba - For My Broken Heart
TTITLE10=Travis, Randy - Forever And Ever, Amen
TTITLE11=Brooks, Garth - Friends In Low Places
TTITLE12=Fargo, Donna - Funny Face
TTITLE13=Twain, Shania - God Bless The Child
TTITLE14=Greenwood, Lee - God Bless The USA
EXTD=
EXTT0=
EXTT1=
EXTT2=
EXTT3=
EXTT4=
EXTT5=
EXTT6=
EXTT7=
EXTT8=
EXTT9=
EXTT10=
EXTT11=
EXTT12=
EXTT13=
EXTT14=
PLAYORDER=
